<?xml version="1.0" encoding="UTF-8" standalone="no"?>
<svg
   xmlns="http://www.w3.org/2000/svg"
   version="1.1"
   viewBox="0 0 155.90081 114.83582"
   height="32.409222mm"
   width="43.998672mm">
  <g transform="translate(-79.853056,-369.70942)">
    <g>
      <g>
        <path
           d="m 87.293448,455.54603 0,-56.25 11.249996,0 0,7.51465 q 1.713866,-3.33984 4.965816,-5.80078 3.2959,-2.50488 7.29493,-2.50488 0.13183,0 1.80175,0.17578 l 0,12.43652 q -3.12011,-1.23047 -6.24023,-1.23047 -3.51563,0 -5.66895,2.10938 -2.153316,2.10937 -2.153316,5.58105 l 0,37.96875 -11.249996,0 z"
           style="fill:#ff851b;"
           />
        <path
           style="fill:#2ecc40;"
           d="m 116.187,455.54603 c 0,0 -13.52116,-32.63728 8,-56.25 5.22502,-5.73282 6.01952,-5.68086 11.25,0 21.76689,23.64113 8,56.25 8,56.25 z"
           />
        <path
           d="m 180.98778,451.06361 q -3.91113,5.27344 -12.96387,5.27344 -9.05273,0 -12.96386,-5.27344 -3.91114,-5.27344 -3.91114,-15.20508 l 0,-16.875 q 0,-9.93164 3.91114,-15.20507 3.91113,-5.27344 12.96386,-5.27344 9.05274,0 12.96387,5.27344 3.91113,5.27343 3.91113,15.20507 l 0,16.875 q 0,9.93164 -3.91113,15.20508 z m -15.07324,-4.30664 q 0.92285,0.35156 2.10937,0.35156 1.18653,0 2.06543,-0.35156 0.92285,-0.35156 1.49414,-0.83496 0.61524,-0.52734 1.01075,-1.49414 0.3955,-1.01074 0.61523,-1.75781 0.21973,-0.74707 0.30762,-2.15332 0.0879,-1.40625 0.0879,-2.19727 0.0439,-0.83496 0.0439,-2.46094 l 0,-16.875 q 0,-1.62597 -0.0439,-2.41699 0,-0.83496 -0.0879,-2.24121 -0.0879,-1.40625 -0.30762,-2.15332 -0.21973,-0.74707 -0.61523,-1.71387 -0.39551,-1.01074 -1.01075,-1.49414 -0.57129,-0.52734 -1.49414,-0.8789 -0.8789,-0.35157 -2.06543,-0.35157 -1.18652,0 -2.10937,0.35157 -0.87891,0.35156 -1.49414,0.8789 -0.57129,0.4834 -0.9668,1.49414 -0.39551,0.9668 -0.61523,1.71387 -0.21973,0.74707 -0.30762,2.15332 -0.0879,1.40625 -0.13184,2.24121 0,0.79102 0,2.41699 l 0,16.875 q 0,1.62598 0,2.46094 0.0439,0.79102 0.13184,2.19727 0.0879,1.40625 0.30762,2.15332 0.21972,0.74707 0.61523,1.75781 0.39551,0.9668 0.9668,1.49414 0.61523,0.4834 1.49414,0.83496 z"
           style="fill:#ff4136;"
           />
        <path
           d="m 194.21532,455.54603 0,-78.75 11.25,0 0,28.56446 q 2.50488,-2.28516 4.08691,-3.47168 1.58203,-1.23047 4.35059,-2.28516 2.8125,-1.09863 5.97656,-1.09863 3.60352,0 5.84473,2.63672 2.24121,2.63672 2.24121,6.45996 l 0,47.94433 -11.25,0 0,-42.1875 q 0,-2.90039 -0.74707,-4.26269 -0.70313,-1.36231 -3.12012,-1.36231 -3.42773,0 -7.38281,3.2959 l 0,44.5166 -11.25,0 z"
           style="fill:#7fdbff;"
           />
      </g>
      <g transform="translate(-2.1965459,0)">
        <g
           transform="translate(16.304025,139.59135)"
           style="fill:#11111f;;">
          <path
             d="m 73.226318,334.58602 0,-10.9375 2.1875,0 0,1.46119 q 0.333252,-0.64942 0.965577,-1.12793 0.640869,-0.48706 1.418457,-0.48706 0.02563,0 0.350341,0.0342 l 0,2.41821 q -0.606689,-0.23926 -1.213379,-0.23926 -0.683593,0 -1.102294,0.41016 -0.418702,0.41015 -0.418702,1.0852 l 0,7.38281 -2.1875,0 z"
             style="fill:#11111f;"
             />
          <path
             d="m 82.138672,332.9454 q 0.230713,0 0.444336,-0.13672 0.222168,-0.13672 0.333252,-0.26489 0.111084,-0.12818 0.273437,-0.3418 0.02564,-0.0427 0.04273,-0.0598 l 0,-3.02491 q -0.136719,0.094 -0.452881,0.29053 -0.316162,0.19653 -0.50415,0.32471 -0.187989,0.11963 -0.452881,0.3418 -0.264893,0.21362 -0.410156,0.4187 -0.145264,0.19653 -0.256348,0.48706 -0.111084,0.29052 -0.111084,0.60669 0,1.35864 1.09375,1.35864 z m -1.09375,1.79443 q -0.914307,0 -1.555176,-0.78613 -0.632324,-0.79468 -0.632324,-1.78589 0,-0.79468 0.264892,-1.44409 0.273438,-0.64941 0.57251,-1.03394 0.299072,-0.39306 0.999756,-0.80322 0.700684,-0.4187 1.05957,-0.57251 0.358887,-0.15381 1.247559,-0.50415 0.153809,-0.0598 0.230713,-0.094 l 0,-0.78614 q 0,-0.82885 -0.230713,-1.28173 -0.230713,-0.46143 -0.863037,-0.46143 -0.563965,0 -0.811768,0.39307 -0.239258,0.38452 -0.273437,1.06811 -0.0085,0.094 -0.0085,0.28198 l -2.1875,0 q 0.01709,-1.57226 0.880127,-2.50366 0.863037,-0.93139 2.401123,-0.93139 1.529541,0 2.401123,0.94848 0.880127,0.93994 0.880127,2.48657 l 0,4.92188 q 0,1.70898 0.281982,2.73437 l -2.178955,0 -0.290527,-1.64062 q -0.170899,0.3418 -0.281983,0.52978 -0.102539,0.18799 -0.307617,0.46998 -0.205078,0.27343 -0.410156,0.42724 -0.205078,0.14527 -0.512695,0.25635 -0.307617,0.11108 -0.675049,0.11108 z"
             style="fill:#11111f;"
             />
          <path
             d="m 88.504639,334.58602 -2.025147,-10.9375 1.939697,0 1.213379,8.30567 1.14502,-8.30567 1.999512,0 1.162109,8.22022 1.196289,-8.22022 1.948242,0 -2.11914,10.9375 -2.016602,0 -1.162109,-7.53662 -1.1792,7.53662 -2.10205,0 z"
             style="fill:#11111f;"
             />
          <path
             d="m 101.89453,322.0079 0,-2.1875 2.1875,0 0,2.1875 -2.1875,0 z m 0,12.57812 0,-10.9375 2.1875,0 0,10.9375 -2.1875,0 z"
             style="fill:#11111f;"
             />
          <path
             d="m 106.17554,334.58602 0,-10.9375 2.1875,0 0,1.23902 q 1.17065,-1.39282 2.72583,-1.39282 0.78613,0 1.15356,0.35034 0.36743,0.34179 0.49561,1.09375 0.53833,-0.70923 1.16211,-1.07666 0.62378,-0.36743 1.57226,-0.36743 0.27344,0 0.48706,0.0598 0.22217,0.0513 0.38452,0.12817 0.16236,0.0769 0.28199,0.23926 0.12817,0.15381 0.20507,0.29053 0.0854,0.12817 0.13672,0.37598 0.0598,0.2478 0.0854,0.41015 0.0256,0.16236 0.0427,0.47852 0.0171,0.31616 0.0171,0.4956 0,0.17945 0,0.53833 0,0.0769 0,0.11963 l 0,7.95532 -2.1875,0 0,-7.98095 q 0,-0.0427 0,-0.13672 0,-0.28198 -0.009,-0.43579 -0.009,-0.15381 -0.0598,-0.35034 -0.0427,-0.20508 -0.16236,-0.29908 -0.11962,-0.094 -0.31616,-0.094 -0.33325,0 -0.6665,0.13672 -0.33325,0.12817 -0.52124,0.25635 -0.17945,0.11962 -0.45288,0.34179 l 0,8.56201 -2.1875,0 0,-7.93823 q 0,-0.0513 0,-0.15381 0,-0.23925 0,-0.35888 0,-0.11963 -0.0342,-0.30762 -0.0256,-0.19653 -0.0769,-0.29053 -0.0513,-0.094 -0.16235,-0.1709 -0.11108,-0.0769 -0.27344,-0.0769 -0.80322,0 -1.64062,0.69214 l 0,8.60473 -2.1875,0 z"
             style="fill:#11111f;"
             />
          <path
             d="m 122.02637,332.9454 q 0.23071,0 0.44433,-0.13672 0.22217,-0.13672 0.33326,-0.26489 0.11108,-0.12818 0.27343,-0.3418 0.0256,-0.0427 0.0427,-0.0598 l 0,-3.02491 q -0.13672,0.094 -0.45288,0.29053 -0.31617,0.19653 -0.50415,0.32471 -0.18799,0.11963 -0.45288,0.3418 -0.2649,0.21362 -0.41016,0.4187 -0.14526,0.19653 -0.25635,0.48706 -0.11108,0.29052 -0.11108,0.60669 0,1.35864 1.09375,1.35864 z m -1.09375,1.79443 q -0.91431,0 -1.55518,-0.78613 -0.63232,-0.79468 -0.63232,-1.78589 0,-0.79468 0.26489,-1.44409 0.27344,-0.64941 0.57251,-1.03394 0.29907,-0.39306 0.99976,-0.80322 0.70068,-0.4187 1.05957,-0.57251 0.35888,-0.15381 1.24755,-0.50415 0.15381,-0.0598 0.23072,-0.094 l 0,-0.78614 q 0,-0.82885 -0.23072,-1.28173 -0.23071,-0.46143 -0.86303,-0.46143 -0.56397,0 -0.81177,0.39307 -0.23926,0.38452 -0.27344,1.06811 -0.009,0.094 -0.009,0.28198 l -2.1875,0 q 0.0171,-1.57226 0.88012,-2.50366 0.86304,-0.93139 2.40113,-0.93139 1.52954,0 2.40112,0.94848 0.88013,0.93994 0.88013,2.48657 l 0,4.92188 q 0,1.70898 0.28198,2.73437 l -2.17896,0 -0.29052,-1.64062 q -0.1709,0.3418 -0.28199,0.52978 -0.10253,0.18799 -0.30761,0.46998 -0.20508,0.27343 -0.41016,0.42724 -0.20508,0.14527 -0.51269,0.25635 -0.30762,0.11108 -0.67505,0.11108 z"
             style="fill:#11111f;"
             />
          <path
             d="m 128.74268,327.47665 q 0,2.32422 1.36718,2.32422 1.36719,0 1.36719,-2.32422 0,-0.46997 -0.0598,-0.86304 -0.0598,-0.40161 -0.20508,-0.77759 -0.14527,-0.38452 -0.42725,-0.59814 -0.28198,-0.22217 -0.67505,-0.22217 -0.40161,0 -0.68359,0.22217 -0.28198,0.21362 -0.42725,0.59814 -0.13672,0.37598 -0.19653,0.77759 -0.0598,0.39307 -0.0598,0.86304 z m 1.91406,8.76709 q 0.23071,0 0.41015,-0.009 0.18799,-0.009 0.42725,-0.0342 0.23926,-0.0256 0.41016,-0.0854 0.17944,-0.0513 0.33325,-0.13672 0.16235,-0.0855 0.2478,-0.23072 0.0854,-0.13671 0.0854,-0.31616 0,-0.9143 -1.75171,-1.11938 l -1.80298,-0.21363 q -0.33325,0.23926 -0.57251,0.69214 -0.23071,0.45288 -0.23071,0.94849 0,0.13672 0.094,0.23071 0.094,0.10254 0.27344,0.15381 0.18799,0.0513 0.37598,0.0855 0.19653,0.0342 0.46142,0.0427 0.2649,0.009 0.45289,0.009 0.18798,0 0.43579,-0.009 0.25634,-0.009 0.35034,-0.009 z m 0,1.61499 q -0.41016,0 -0.66651,-0.009 -0.25634,0 -0.70068,-0.0171 -0.44434,-0.0171 -0.74341,-0.0684 -0.29907,-0.0427 -0.68359,-0.11963 -0.38452,-0.0684 -0.64087,-0.18799 -0.2478,-0.11963 -0.47852,-0.28198 -0.23071,-0.16236 -0.35034,-0.40162 -0.11108,-0.23071 -0.11108,-0.52124 0,-0.85449 0.45288,-1.46118 0.46142,-0.60669 1.18774,-0.96557 -0.44433,-0.11963 -0.76904,-0.35889 -0.32471,-0.2478 -0.32471,-0.59814 0,-0.14527 0.0342,-0.30762 0.0342,-0.16236 0.0769,-0.29053 0.0427,-0.13672 0.13672,-0.30762 0.094,-0.1709 0.14526,-0.26489 0.0598,-0.10254 0.18799,-0.27344 0.12817,-0.17944 0.1709,-0.23925 0.0513,-0.0684 0.18798,-0.23072 0.13672,-0.1709 0.15381,-0.19653 -1.09375,-1.29883 -1.09375,-3.28125 0,-1.13648 0.35889,-2.02515 0.35889,-0.88867 1.11084,-1.41845 0.7605,-0.53833 1.81152,-0.53833 0.60669,0 1.05957,0.17089 0.45288,0.1709 0.73487,0.4358 0.29052,0.25634 0.56396,0.68359 0.64942,-1.20483 1.8457,-1.28174 0.0256,0 0.0513,0 0.0256,0 0.0598,0 0.0427,0 0.0598,0 l 0,1.78589 q -0.0427,0 -0.13672,0 -0.36743,0 -0.55542,0.009 -0.18798,0.009 -0.4187,0.0769 -0.23071,0.0598 -0.36743,0.19653 0.15381,0.33325 0.26489,0.88867 0.11963,0.54688 0.11963,1.01685 0,1.14502 -0.35034,2.02515 -0.3418,0.88012 -1.10229,1.40991 -0.75196,0.52978 -1.82862,0.52978 l -1.10229,-0.12817 q -0.0171,0.0427 -0.0854,0.15381 -0.0684,0.10254 -0.11108,0.1709 -0.0342,0.0684 -0.0684,0.17944 -0.0342,0.10254 -0.0342,0.19653 0,0.22217 0.21362,0.37598 0.21362,0.15381 0.5896,0.23071 0.37598,0.0684 0.71777,0.10254 0.35034,0.0342 0.77759,0.0598 0.42725,0.0171 0.5896,0.0427 0.48706,0.0684 0.86304,0.16235 0.38452,0.0855 0.77758,0.25635 0.40162,0.1709 0.65796,0.41016 0.25635,0.23926 0.4187,0.61523 0.1709,0.37598 0.1709,0.86304 0,0.59814 -0.21362,1.06811 -0.20508,0.46998 -0.55542,0.77759 -0.35034,0.30762 -0.84595,0.50415 -0.4956,0.20508 -1.04248,0.29053 -0.54687,0.0854 -1.17065,0.0854 z"
             style="fill:#11111f;"
             />
          <path
             d="m 138.18481,334.73983 q -0.79467,0 -1.38427,-0.27343 -0.58106,-0.27344 -0.9314,-0.70923 -0.3418,-0.44434 -0.55542,-1.12793 -0.21362,-0.69214 -0.29907,-1.37574 -0.0769,-0.69213 -0.094,-1.60644 -0.0256,-0.71777 0,-1.43555 0.0256,-0.85449 0.11109,-1.51245 0.094,-0.6665 0.31616,-1.29028 0.22217,-0.62378 0.57251,-1.02539 0.35889,-0.40161 0.9314,-0.64087 0.58105,-0.2478 1.35009,-0.2478 0.70069,0 1.23047,0.18798 0.53833,0.17945 0.88867,0.55542 0.35889,0.36744 0.5896,0.82032 0.23926,0.45288 0.35889,1.10229 0.11963,0.64087 0.16235,1.26465 0.0513,0.62378 0.0513,1.43555 l 0,0.25634 -4.375,0 0,0.54688 q 0,0.11108 0,0.35034 -0.0171,0.31616 -0.009,0.65796 0.0171,0.33325 0.0342,0.65796 0.0171,0.32471 0.094,0.62378 0.0769,0.29053 0.18799,0.51269 0.11109,0.22217 0.30762,0.35035 0.20508,0.12817 0.47851,0.12817 0.3418,0 0.56397,-0.12817 0.22217,-0.13672 0.32471,-0.40162 0.11108,-0.26489 0.1538,-0.52978 0.0427,-0.26489 0.0513,-0.6665 l 0,-0.46143 2.17041,0 0,0.43579 q -0.0769,1.75171 -0.86303,2.64893 -0.78614,0.89721 -2.41822,0.89721 z m -1.07666,-6.71631 2.17041,0 0,-0.65795 q -0.009,-0.4358 -0.0513,-0.7605 -0.0427,-0.32471 -0.1538,-0.64942 -0.10254,-0.3247 -0.32471,-0.4956 -0.22217,-0.1709 -0.54688,-0.1709 -0.33325,0 -0.56396,0.17944 -0.22217,0.17945 -0.33325,0.52124 -0.10254,0.33325 -0.14527,0.65796 -0.0427,0.32471 -0.0513,0.77759 l 0,0.59814 z"
             style="fill:#11111f;"
             />
          <path
             d="m 145.92651,334.73983 q -1.35009,0 -2.17041,-0.80322 -0.81176,-0.80322 -1.11084,-2.08496 l 1.64063,-0.54688 q 0.5896,1.64063 1.64062,1.64063 0.52124,0 0.80323,-0.28198 0.29052,-0.29053 0.29052,-0.81177 0,-0.7605 -0.54687,-1.26465 l -2.1875,-1.64062 q -0.36743,-0.24781 -0.61524,-0.46143 -0.2478,-0.22217 -0.50415,-0.53833 -0.25634,-0.31616 -0.39306,-0.70923 -0.12818,-0.39306 -0.12818,-0.85449 0,-1.40137 0.88868,-2.14478 0.89721,-0.7434 2.39257,-0.7434 0.70923,0 1.28174,0.23071 0.57251,0.22217 0.95703,0.63232 0.39307,0.41016 0.64087,0.91431 0.25635,0.49561 0.40161,1.11084 l -1.64062,0.54687 q -0.11963,-0.3247 -0.23926,-0.55542 -0.11963,-0.23925 -0.32471,-0.51269 -0.19653,-0.27344 -0.46997,-0.4187 -0.27343,-0.15381 -0.60669,-0.15381 -0.52124,0 -0.81176,0.29053 -0.28199,0.28198 -0.28199,0.80322 0,0.51269 0.54688,0.92285 l 2.1875,1.64063 q 0.36743,0.29052 0.62378,0.56396 0.26489,0.26489 0.51269,0.62378 0.24781,0.35034 0.37598,0.78613 0.12817,0.43579 0.12817,0.9314 0,1.40137 -0.89721,2.14477 -0.88868,0.74341 -2.38404,0.74341 z"
             style="fill:#11111f;"
             />
          <path
             d="m 159.69238,333.71444 q -0.7605,1.02539 -2.52075,1.02539 -1.76025,0 -2.52075,-1.02539 -0.7605,-1.02539 -0.7605,-2.95654 l 0,-3.28125 q 0,-1.93115 0.7605,-2.95654 0.7605,-1.02539 2.52075,-1.02539 1.76025,0 2.52075,1.02539 0.7605,1.02539 0.7605,2.95654 l 0,3.28125 q 0,1.93115 -0.7605,2.95654 z m -2.93091,-0.8374 q 0.17945,0.0684 0.41016,0.0684 0.23071,0 0.40161,-0.0684 0.17945,-0.0684 0.29053,-0.16235 0.11963,-0.10254 0.19653,-0.29053 0.0769,-0.19653 0.11963,-0.3418 0.0427,-0.14526 0.0598,-0.4187 0.0171,-0.27344 0.0171,-0.42724 0.009,-0.16236 0.009,-0.47852 l 0,-3.28125 q 0,-0.31616 -0.009,-0.46997 0,-0.16235 -0.0171,-0.43579 -0.0171,-0.27344 -0.0598,-0.4187 -0.0427,-0.14527 -0.11963,-0.33326 -0.0769,-0.19653 -0.19653,-0.29052 -0.11108,-0.10254 -0.29053,-0.1709 -0.1709,-0.0684 -0.40161,-0.0684 -0.23071,0 -0.41016,0.0684 -0.17089,0.0684 -0.29052,0.1709 -0.11109,0.094 -0.18799,0.29052 -0.0769,0.18799 -0.11963,0.33326 -0.0427,0.14526 -0.0598,0.4187 -0.0171,0.27344 -0.0256,0.43579 0,0.15381 0,0.46997 l 0,3.28125 q 0,0.31616 0,0.47852 0.009,0.1538 0.0256,0.42724 0.0171,0.27344 0.0598,0.4187 0.0427,0.14527 0.11963,0.3418 0.0769,0.18799 0.18799,0.29053 0.11963,0.094 0.29052,0.16235 z"
             style="fill:#11111f;"
             />
          <path
             d="m 163.89648,334.58602 -2.46093,-10.9375 2.10205,0 1.52099,8.21167 1.38428,-8.21167 2.10205,0 -2.44385,10.9375 -2.20459,0 z"
             style="fill:#11111f;"
             />
          <path
             d="m 172.67212,334.73983 q -0.79468,0 -1.38428,-0.27343 -0.58105,-0.27344 -0.93139,-0.70923 -0.3418,-0.44434 -0.55542,-1.12793 -0.21363,-0.69214 -0.29908,-1.37574 -0.0769,-0.69213 -0.094,-1.60644 -0.0256,-0.71777 0,-1.43555 0.0256,-0.85449 0.11108,-1.51245 0.094,-0.6665 0.31617,-1.29028 0.22216,-0.62378 0.5725,-1.02539 0.35889,-0.40161 0.9314,-0.64087 0.58106,-0.2478 1.3501,-0.2478 0.70068,0 1.23047,0.18798 0.53833,0.17945 0.88867,0.55542 0.35889,0.36744 0.5896,0.82032 0.23926,0.45288 0.35889,1.10229 0.11962,0.64087 0.16235,1.26465 0.0513,0.62378 0.0513,1.43555 l 0,0.25634 -4.375,0 0,0.54688 q 0,0.11108 0,0.35034 -0.0171,0.31616 -0.009,0.65796 0.0171,0.33325 0.0342,0.65796 0.0171,0.32471 0.094,0.62378 0.0769,0.29053 0.18799,0.51269 0.11108,0.22217 0.30761,0.35035 0.20508,0.12817 0.47852,0.12817 0.3418,0 0.56396,-0.12817 0.22217,-0.13672 0.32471,-0.40162 0.11108,-0.26489 0.15381,-0.52978 0.0427,-0.26489 0.0513,-0.6665 l 0,-0.46143 2.17041,0 0,0.43579 q -0.0769,1.75171 -0.86304,2.64893 -0.78613,0.89721 -2.41821,0.89721 z m -1.07666,-6.71631 2.17041,0 0,-0.65795 q -0.009,-0.4358 -0.0513,-0.7605 -0.0427,-0.32471 -0.15381,-0.64942 -0.10254,-0.3247 -0.32471,-0.4956 -0.22216,-0.1709 -0.54687,-0.1709 -0.33325,0 -0.56397,0.17944 -0.22216,0.17945 -0.33325,0.52124 -0.10254,0.33325 -0.14526,0.65796 -0.0427,0.32471 -0.0513,0.77759 l 0,0.59814 z"
             style="fill:#11111f;"
             />
          <path
             d="m 177.54272,334.58602 0,-10.9375 2.1875,0 0,1.46119 q 0.33326,-0.64942 0.96558,-1.12793 0.64087,-0.48706 1.41846,-0.48706 0.0256,0 0.35034,0.0342 l 0,2.41821 q -0.60669,-0.23926 -1.21338,-0.23926 -0.68359,0 -1.10229,0.41016 -0.41871,0.41015 -0.41871,1.0852 l 0,7.38281 -2.1875,0 z"
             style="fill:#11111f;"
             />
          <path
             d="m 187.0105,334.58602 0,-15.3125 2.1875,0 0,5.5542 q 0.48706,-0.44433 0.79468,-0.67505 0.30761,-0.23925 0.84594,-0.44433 0.54688,-0.21362 1.16211,-0.21362 0.70069,0 1.13648,0.51269 0.43579,0.5127 0.43579,1.2561 l 0,9.32251 -2.1875,0 0,-8.20312 q 0,-0.56397 -0.14527,-0.82886 -0.13671,-0.26489 -0.60669,-0.26489 -0.6665,0 -1.43554,0.64087 l 0,8.656 -2.1875,0 z"
             style="fill:#11111f;"
             />
          <path
             d="m 198.52051,334.73983 q -1.29029,0 -1.87989,-0.65796 -0.58105,-0.65795 -0.59814,-1.99096 l 0,-6.80176 -1.09375,0 0,-1.64063 1.09375,0 0,-3.82812 2.1875,0 0,3.82812 1.64063,0 0,1.64063 -1.64063,0 0,6.38306 q 0,0.65796 0.17944,0.96557 0.17945,0.30762 0.72632,0.30762 0.23926,0 0.73487,-0.0854 l 0,1.77734 q -0.82032,0.10254 -1.3501,0.10254 z"
             style="fill:#11111f;"
             />
          <path
             d="m 204.50195,334.73983 q -1.29028,0 -1.87988,-0.65796 -0.58105,-0.65795 -0.59814,-1.99096 l 0,-6.80176 -1.09375,0 0,-1.64063 1.09375,0 0,-3.82812 2.1875,0 0,3.82812 1.64062,0 0,1.64063 -1.64062,0 0,6.38306 q 0,0.65796 0.17944,0.96557 0.17944,0.30762 0.72632,0.30762 0.23926,0 0.73486,-0.0854 l 0,1.77734 q -0.82031,0.10254 -1.3501,0.10254 z"
             style="fill:#11111f;"
             />
          <path
             d="m 211.27808,332.9454 q 0.35034,0 0.58105,-0.25635 0.23926,-0.25635 0.3418,-0.72632 0.11108,-0.47851 0.14526,-0.93994 0.0427,-0.46997 0.0427,-1.09375 l -0.0171,-1.44409 q 0,-0.38452 -0.009,-0.61523 0,-0.23926 -0.0256,-0.62378 -0.0256,-0.39307 -0.0769,-0.64087 -0.0427,-0.24781 -0.13672,-0.54688 -0.094,-0.29907 -0.23071,-0.46997 -0.12817,-0.1709 -0.3418,-0.29053 -0.20507,-0.11962 -0.46997,-0.11962 -0.12817,0 -0.2478,0.0171 -0.11108,0.0171 -0.23926,0.0598 -0.11963,0.0342 -0.20508,0.0684 -0.0769,0.0256 -0.20507,0.094 -0.12818,0.0684 -0.18799,0.10254 -0.0513,0.0256 -0.18799,0.11109 -0.13672,0.0855 -0.1709,0.10254 l 0,6.76757 q 0.75195,0.44434 1.64063,0.44434 z m -3.82813,4.92187 0,-14.21875 2.1875,0 0,1.09375 q 0.26489,-0.28198 0.36743,-0.38452 0.10254,-0.10254 0.35034,-0.31616 0.25635,-0.21362 0.4358,-0.29907 0.18798,-0.0855 0.46997,-0.16235 0.29052,-0.0855 0.59814,-0.0855 0.55542,0 0.99121,0.20507 0.43579,0.19654 0.71778,0.47852 0.28198,0.28198 0.47851,0.81177 0.19653,0.52124 0.29053,0.94848 0.10254,0.42725 0.15381,1.15357 0.0513,0.72632 0.0598,1.1792 0.009,0.44433 0.009,1.23047 l 0,0.16235 q 0,0.71777 -0.0769,1.38428 -0.0684,0.6665 -0.26489,1.35864 -0.18799,0.68359 -0.48706,1.18774 -0.29053,0.50415 -0.78613,0.82886 -0.48706,0.31616 -1.11939,0.31616 -1.11084,0 -2.1875,-1.13647 l 0,4.26391 -2.1875,0 z"
             style="fill:#11111f;"
             />
        </g>
        <g>
          <g transform="translate(15.909898,139.59135)">
            <path
               d="m 73.226318,334.58602 0,-10.9375 2.1875,0 0,1.46119 q 0.333252,-0.64942 0.965577,-1.12793 0.640869,-0.48706 1.418457,-0.48706 0.02563,0 0.350341,0.0342 l 0,2.41821 q -0.606689,-0.23926 -1.213379,-0.23926 -0.683593,0 -1.102294,0.41016 -0.418702,0.41015 -0.418702,1.0852 l 0,7.38281 -2.1875,0 z"
               style="fill:#ff851b;"
               />
            <path
               d="m 82.138672,332.9454 q 0.230713,0 0.444336,-0.13672 0.222168,-0.13672 0.333252,-0.26489 0.111084,-0.12818 0.273437,-0.3418 0.02564,-0.0427 0.04273,-0.0598 l 0,-3.02491 q -0.136719,0.094 -0.452881,0.29053 -0.316162,0.19653 -0.50415,0.32471 -0.187989,0.11963 -0.452881,0.3418 -0.264893,0.21362 -0.410156,0.4187 -0.145264,0.19653 -0.256348,0.48706 -0.111084,0.29052 -0.111084,0.60669 0,1.35864 1.09375,1.35864 z m -1.09375,1.79443 q -0.914307,0 -1.555176,-0.78613 -0.632324,-0.79468 -0.632324,-1.78589 0,-0.79468 0.264892,-1.44409 0.273438,-0.64941 0.57251,-1.03394 0.299072,-0.39306 0.999756,-0.80322 0.700684,-0.4187 1.05957,-0.57251 0.358887,-0.15381 1.247559,-0.50415 0.153809,-0.0598 0.230713,-0.094 l 0,-0.78614 q 0,-0.82885 -0.230713,-1.28173 -0.230713,-0.46143 -0.863037,-0.46143 -0.563965,0 -0.811768,0.39307 -0.239258,0.38452 -0.273437,1.06811 -0.0085,0.094 -0.0085,0.28198 l -2.1875,0 q 0.01709,-1.57226 0.880127,-2.50366 0.863037,-0.93139 2.401123,-0.93139 1.529541,0 2.401123,0.94848 0.880127,0.93994 0.880127,2.48657 l 0,4.92188 q 0,1.70898 0.281982,2.73437 l -2.178955,0 -0.290527,-1.64062 q -0.170899,0.3418 -0.281983,0.52978 -0.102539,0.18799 -0.307617,0.46998 -0.205078,0.27343 -0.410156,0.42724 -0.205078,0.14527 -0.512695,0.25635 -0.307617,0.11108 -0.675049,0.11108 z"
               style="fill:#ff851b;"
               />
            <path
               d="m 88.504639,334.58602 -2.025147,-10.9375 1.939697,0 1.213379,8.30567 1.14502,-8.30567 1.999512,0 1.162109,8.22022 1.196289,-8.22022 1.948242,0 -2.11914,10.9375 -2.016602,0 -1.162109,-7.53662 -1.1792,7.53662 -2.10205,0 z"
               style="fill:#ff851b;"
               />
          </g>
          <g transform="translate(44.490257,139.59135)">
            <path
               d="m 73.320312,322.0079 0,-2.1875 2.1875,0 0,2.1875 -2.1875,0 z m 0,12.57812 0,-10.9375 2.1875,0 0,10.9375 -2.1875,0 z"
               style="fill:#2ecc40;"
               />
            <path
               d="m 77.601318,334.58602 0,-10.9375 2.1875,0 0,1.23902 q 1.170655,-1.39282 2.72583,-1.39282 0.786133,0 1.153565,0.35034 0.367432,0.34179 0.495605,1.09375 0.53833,-0.70923 1.16211,-1.07666 0.623779,-0.36743 1.572265,-0.36743 0.273438,0 0.487061,0.0598 0.222168,0.0513 0.384521,0.12817 0.162354,0.0769 0.281983,0.23926 0.128174,0.15381 0.205078,0.29053 0.08545,0.12817 0.136719,0.37598 0.05981,0.2478 0.08545,0.41015 0.02563,0.16236 0.04272,0.47852 0.01709,0.31616 0.01709,0.4956 0,0.17945 0,0.53833 0,0.0769 0,0.11963 l 0,7.95532 -2.1875,0 0,-7.98095 q 0,-0.0427 0,-0.13672 0,-0.28198 -0.0085,-0.43579 -0.0085,-0.15381 -0.05981,-0.35034 -0.04273,-0.20508 -0.162354,-0.29908 -0.119628,-0.094 -0.316162,-0.094 -0.333252,0 -0.666504,0.13672 -0.333252,0.12817 -0.52124,0.25635 -0.179443,0.11962 -0.452881,0.34179 l 0,8.56201 -2.1875,0 0,-7.93823 q 0,-0.0513 0,-0.15381 0,-0.23925 0,-0.35888 0,-0.11963 -0.03418,-0.30762 -0.02563,-0.19653 -0.0769,-0.29053 -0.05127,-0.094 -0.162353,-0.1709 -0.111084,-0.0769 -0.273438,-0.0769 -0.803222,0 -1.640625,0.69214 l 0,8.60473 -2.1875,0 z"
               style="fill:#2ecc40;"
               />
            <path
               d="m 93.452148,332.9454 q 0.230713,0 0.444336,-0.13672 0.222168,-0.13672 0.333252,-0.26489 0.111084,-0.12818 0.273438,-0.3418 0.02563,-0.0427 0.04272,-0.0598 l 0,-3.02491 q -0.136718,0.094 -0.45288,0.29053 -0.316163,0.19653 -0.504151,0.32471 -0.187988,0.11963 -0.452881,0.3418 -0.264892,0.21362 -0.410156,0.4187 -0.145264,0.19653 -0.256348,0.48706 -0.111084,0.29052 -0.111084,0.60669 0,1.35864 1.09375,1.35864 z m -1.09375,1.79443 q -0.914306,0 -1.555175,-0.78613 -0.632325,-0.79468 -0.632325,-1.78589 0,-0.79468 0.264893,-1.44409 0.273438,-0.64941 0.57251,-1.03394 0.299072,-0.39306 0.999756,-0.80322 0.700683,-0.4187 1.05957,-0.57251 0.358887,-0.15381 1.247559,-0.50415 0.153808,-0.0598 0.230712,-0.094 l 0,-0.78614 q 0,-0.82885 -0.230712,-1.28173 -0.230713,-0.46143 -0.863038,-0.46143 -0.563964,0 -0.811767,0.39307 -0.239258,0.38452 -0.273438,1.06811 -0.0085,0.094 -0.0085,0.28198 l -2.1875,0 q 0.01709,-1.57226 0.880127,-2.50366 0.863037,-0.93139 2.401123,-0.93139 1.529541,0 2.401123,0.94848 0.880127,0.93994 0.880127,2.48657 l 0,4.92188 q 0,1.70898 0.281983,2.73437 l -2.178955,0 -0.290528,-1.64062 q -0.170898,0.3418 -0.281982,0.52978 -0.102539,0.18799 -0.307617,0.46998 -0.205078,0.27343 -0.410156,0.42724 -0.205079,0.14527 -0.512696,0.25635 -0.307617,0.11108 -0.675049,0.11108 z"
               style="fill:#2ecc40;"
               />
            <path
               d="m 100.16846,327.47665 q 0,2.32422 1.36718,2.32422 1.36719,0 1.36719,-2.32422 0,-0.46997 -0.0598,-0.86304 -0.0598,-0.40161 -0.20508,-0.77759 -0.14526,-0.38452 -0.42725,-0.59814 -0.28198,-0.22217 -0.67505,-0.22217 -0.40161,0 -0.68359,0.22217 -0.28198,0.21362 -0.42725,0.59814 -0.13671,0.37598 -0.19653,0.77759 -0.0598,0.39307 -0.0598,0.86304 z m 1.91406,8.76709 q 0.23071,0 0.41016,-0.009 0.18798,-0.009 0.42724,-0.0342 0.23926,-0.0256 0.41016,-0.0854 0.17944,-0.0513 0.33325,-0.13672 0.16235,-0.0855 0.2478,-0.23072 0.0854,-0.13671 0.0854,-0.31616 0,-0.9143 -1.75171,-1.11938 l -1.80298,-0.21363 q -0.33325,0.23926 -0.572505,0.69214 -0.230713,0.45288 -0.230713,0.94849 0,0.13672 0.09399,0.23071 0.09399,0.10254 0.273438,0.15381 0.18799,0.0513 0.37598,0.0855 0.19653,0.0342 0.46143,0.0427 0.26489,0.009 0.45288,0.009 0.18799,0 0.43579,-0.009 0.25635,-0.009 0.35034,-0.009 z m 0,1.61499 q -0.41016,0 -0.6665,-0.009 -0.25635,0 -0.70069,-0.0171 -0.44433,-0.0171 -0.743406,-0.0684 -0.299072,-0.0427 -0.683594,-0.11963 -0.384521,-0.0684 -0.640869,-0.18799 -0.247803,-0.11963 -0.478516,-0.28198 -0.230713,-0.16236 -0.350341,-0.40162 -0.111084,-0.23071 -0.111084,-0.52124 0,-0.85449 0.45288,-1.46118 0.461426,-0.60669 1.187745,-0.96557 -0.444336,-0.11963 -0.769043,-0.35889 -0.324707,-0.2478 -0.324707,-0.59814 0,-0.14527 0.03418,-0.30762 0.03418,-0.16236 0.0769,-0.29053 0.04272,-0.13672 0.136718,-0.30762 0.09399,-0.1709 0.145264,-0.26489 0.05981,-0.10254 0.187988,-0.27344 0.128174,-0.17944 0.170899,-0.23925 0.05127,-0.0684 0.187988,-0.23072 0.136719,-0.1709 0.153809,-0.19653 -1.09375,-1.29883 -1.09375,-3.28125 0,-1.13648 0.358886,-2.02515 0.358887,-0.88867 1.11084,-1.41845 0.760503,-0.53833 1.811523,-0.53833 0.60669,0 1.05957,0.17089 0.45289,0.1709 0.73487,0.4358 0.29053,0.25634 0.56396,0.68359 0.64942,-1.20483 1.84571,-1.28174 0.0256,0 0.0513,0 0.0256,0 0.0598,0 0.0427,0 0.0598,0 l 0,1.78589 q -0.0427,0 -0.13671,0 -0.36744,0 -0.55542,0.009 -0.18799,0.009 -0.41871,0.0769 -0.23071,0.0598 -0.36743,0.19653 0.15381,0.33325 0.2649,0.88867 0.11962,0.54688 0.11962,1.01685 0,1.14502 -0.35034,2.02515 -0.34179,0.88012 -1.10229,1.40991 -0.75196,0.52978 -1.82862,0.52978 l -1.10229,-0.12817 q -0.0171,0.0427 -0.0855,0.15381 -0.0684,0.10254 -0.11108,0.1709 -0.0342,0.0684 -0.0684,0.17944 -0.0342,0.10254 -0.0342,0.19653 0,0.22217 0.21362,0.37598 0.21362,0.15381 0.5896,0.23071 0.37598,0.0684 0.71777,0.10254 0.35035,0.0342 0.77759,0.0598 0.42725,0.0171 0.5896,0.0427 0.48706,0.0684 0.86304,0.16235 0.38452,0.0855 0.77759,0.25635 0.40161,0.1709 0.65795,0.41016 0.25635,0.23926 0.41871,0.61523 0.17089,0.37598 0.17089,0.86304 0,0.59814 -0.21362,1.06811 -0.20508,0.46998 -0.55542,0.77759 -0.35034,0.30762 -0.84595,0.50415 -0.4956,0.20508 -1.04248,0.29053 -0.54687,0.0854 -1.17065,0.0854 z"
               style="fill:#2ecc40;"
               />
            <path
               d="m 109.6106,334.73983 q -0.79468,0 -1.38428,-0.27343 -0.58106,-0.27344 -0.9314,-0.70923 -0.34179,-0.44434 -0.55542,-1.12793 -0.21362,-0.69214 -0.29907,-1.37574 -0.0769,-0.69213 -0.094,-1.60644 -0.0256,-0.71777 0,-1.43555 0.0256,-0.85449 0.11108,-1.51245 0.094,-0.6665 0.31616,-1.29028 0.22217,-0.62378 0.57251,-1.02539 0.35889,-0.40161 0.9314,-0.64087 0.58105,-0.2478 1.3501,-0.2478 0.70068,0 1.23046,0.18798 0.53833,0.17945 0.88868,0.55542 0.35888,0.36744 0.5896,0.82032 0.23925,0.45288 0.35888,1.10229 0.11963,0.64087 0.16236,1.26465 0.0513,0.62378 0.0513,1.43555 l 0,0.25634 -4.375,0 0,0.54688 q 0,0.11108 0,0.35034 -0.0171,0.31616 -0.009,0.65796 0.0171,0.33325 0.0342,0.65796 0.0171,0.32471 0.094,0.62378 0.0769,0.29053 0.18799,0.51269 0.11109,0.22217 0.30762,0.35035 0.20508,0.12817 0.47852,0.12817 0.34179,0 0.56396,-0.12817 0.22217,-0.13672 0.32471,-0.40162 0.11108,-0.26489 0.15381,-0.52978 0.0427,-0.26489 0.0513,-0.6665 l 0,-0.46143 2.17041,0 0,0.43579 q -0.0769,1.75171 -0.86304,2.64893 -0.78613,0.89721 -2.41821,0.89721 z m -1.07666,-6.71631 2.17041,0 0,-0.65795 q -0.009,-0.4358 -0.0513,-0.7605 -0.0427,-0.32471 -0.15381,-0.64942 -0.10254,-0.3247 -0.32471,-0.4956 -0.22217,-0.1709 -0.54687,-0.1709 -0.33326,0 -0.56397,0.17944 -0.22217,0.17945 -0.33325,0.52124 -0.10254,0.33325 -0.14526,0.65796 -0.0427,0.32471 -0.0513,0.77759 l 0,0.59814 z"
               style="fill:#2ecc40;"
               />
            <path
               d="m 117.35229,334.73983 q -1.35009,0 -2.17041,-0.80322 -0.81176,-0.80322 -1.11084,-2.08496 l 1.64063,-0.54688 q 0.5896,1.64063 1.64062,1.64063 0.52125,0 0.80323,-0.28198 0.29052,-0.29053 0.29052,-0.81177 0,-0.7605 -0.54687,-1.26465 l -2.1875,-1.64062 q -0.36743,-0.24781 -0.61523,-0.46143 -0.24781,-0.22217 -0.50415,-0.53833 -0.25635,-0.31616 -0.39307,-0.70923 -0.12818,-0.39306 -0.12818,-0.85449 0,-1.40137 0.88868,-2.14478 0.89721,-0.7434 2.39257,-0.7434 0.70923,0 1.28174,0.23071 0.57251,0.22217 0.95703,0.63232 0.39307,0.41016 0.64087,0.91431 0.25635,0.49561 0.40161,1.11084 l -1.64062,0.54687 q -0.11963,-0.3247 -0.23926,-0.55542 -0.11963,-0.23925 -0.3247,-0.51269 -0.19654,-0.27344 -0.46998,-0.4187 -0.27343,-0.15381 -0.60669,-0.15381 -0.52124,0 -0.81176,0.29053 -0.28199,0.28198 -0.28199,0.80322 0,0.51269 0.54688,0.92285 l 2.1875,1.64063 q 0.36743,0.29052 0.62378,0.56396 0.26489,0.26489 0.51269,0.62378 0.24781,0.35034 0.37598,0.78613 0.12817,0.43579 0.12817,0.9314 0,1.40137 -0.89721,2.14477 -0.88867,0.74341 -2.38404,0.74341 z"
               style="fill:#2ecc40;"
               />
          </g>
          <g transform="translate(96.793823,139.59135)">
            <path
               d="m 78.823242,333.71444 q -0.760498,1.02539 -2.520752,1.02539 -1.760254,0 -2.520752,-1.02539 -0.760498,-1.02539 -0.760498,-2.95654 l 0,-3.28125 q 0,-1.93115 0.760498,-2.95654 0.760498,-1.02539 2.520752,-1.02539 1.760254,0 2.520752,1.02539 0.760498,1.02539 0.760498,2.95654 l 0,3.28125 q 0,1.93115 -0.760498,2.95654 z m -2.930908,-0.8374 q 0.179443,0.0684 0.410156,0.0684 0.230713,0 0.401612,-0.0684 0.179443,-0.0684 0.290527,-0.16235 0.119629,-0.10254 0.196533,-0.29053 0.0769,-0.19653 0.119629,-0.3418 0.04273,-0.14526 0.05981,-0.4187 0.01709,-0.27344 0.01709,-0.42724 0.0085,-0.16236 0.0085,-0.47852 l 0,-3.28125 q 0,-0.31616 -0.0085,-0.46997 0,-0.16235 -0.01709,-0.43579 -0.01709,-0.27344 -0.05981,-0.4187 -0.04272,-0.14527 -0.119629,-0.33326 -0.0769,-0.19653 -0.196533,-0.29052 -0.111084,-0.10254 -0.290527,-0.1709 -0.170899,-0.0684 -0.401612,-0.0684 -0.230713,0 -0.410156,0.0684 -0.170898,0.0684 -0.290527,0.1709 -0.111084,0.094 -0.187989,0.29052 -0.0769,0.18799 -0.119629,0.33326 -0.04272,0.14526 -0.05981,0.4187 -0.01709,0.27344 -0.02563,0.43579 0,0.15381 0,0.46997 l 0,3.28125 q 0,0.31616 0,0.47852 0.0085,0.1538 0.02563,0.42724 0.01709,0.27344 0.05981,0.4187 0.04272,0.14527 0.119629,0.3418 0.0769,0.18799 0.187989,0.29053 0.119629,0.094 0.290527,0.16235 z"
               style="fill:#ff4136;"
               />
            <path
               d="m 83.027344,334.58602 -2.460938,-10.9375 2.102051,0 1.520996,8.21167 1.384277,-8.21167 2.102051,0 -2.443847,10.9375 -2.20459,0 z"
               style="fill:#ff4136;"
               />
            <path
               d="m 91.802979,334.73983 q -0.794678,0 -1.384278,-0.27343 -0.581055,-0.27344 -0.931396,-0.70923 -0.341797,-0.44434 -0.55542,-1.12793 -0.213623,-0.69214 -0.299073,-1.37574 -0.0769,-0.69213 -0.09399,-1.60644 -0.02563,-0.71777 0,-1.43555 0.02563,-0.85449 0.111084,-1.51245 0.09399,-0.6665 0.316162,-1.29028 0.222168,-0.62378 0.57251,-1.02539 0.358887,-0.40161 0.931397,-0.64087 0.581054,-0.2478 1.350097,-0.2478 0.700684,0 1.230469,0.18798 0.53833,0.17945 0.888672,0.55542 0.358887,0.36744 0.5896,0.82032 0.239257,0.45288 0.358886,1.10229 0.119629,0.64087 0.162354,1.26465 0.05127,0.62378 0.05127,1.43555 l 0,0.25634 -4.375,0 0,0.54688 q 0,0.11108 0,0.35034 -0.01709,0.31616 -0.0085,0.65796 0.01709,0.33325 0.03418,0.65796 0.01709,0.32471 0.09399,0.62378 0.07691,0.29053 0.187989,0.51269 0.111084,0.22217 0.307617,0.35035 0.205078,0.12817 0.478515,0.12817 0.341797,0 0.563965,-0.12817 0.222168,-0.13672 0.324707,-0.40162 0.111084,-0.26489 0.153809,-0.52978 0.04272,-0.26489 0.05127,-0.6665 l 0,-0.46143 2.170411,0 0,0.43579 q -0.0769,1.75171 -0.863038,2.64893 -0.786132,0.89721 -2.418212,0.89721 z m -1.076661,-6.71631 2.170411,0 0,-0.65795 q -0.0085,-0.4358 -0.05127,-0.7605 -0.04273,-0.32471 -0.153809,-0.64942 -0.102539,-0.3247 -0.324707,-0.4956 -0.222168,-0.1709 -0.546875,-0.1709 -0.333252,0 -0.563964,0.17944 -0.222168,0.17945 -0.333252,0.52124 -0.10254,0.33325 -0.145264,0.65796 -0.04272,0.32471 -0.05127,0.77759 l 0,0.59814 z"
               style="fill:#ff4136;"
               />
            <path
               d="m 96.673584,334.58602 0,-10.9375 2.1875,0 0,1.46119 q 0.333252,-0.64942 0.965576,-1.12793 0.64087,-0.48706 1.41846,-0.48706 0.0256,0 0.35034,0.0342 l 0,2.41821 q -0.60669,-0.23926 -1.21338,-0.23926 -0.683594,0 -1.102295,0.41016 -0.418701,0.41015 -0.418701,1.0852 l 0,7.38281 -2.1875,0 z"
               style="fill:#ff4136;"
               />
          </g>
          <g transform="translate(129.70902,139.59135)">
            <path
               d="m 73.226318,334.58602 0,-15.3125 2.1875,0 0,5.5542 q 0.487061,-0.44433 0.794678,-0.67505 0.307617,-0.23925 0.845947,-0.44433 0.546875,-0.21362 1.16211,-0.21362 0.700683,0 1.136474,0.51269 0.435791,0.5127 0.435791,1.2561 l 0,9.32251 -2.1875,0 0,-8.20312 q 0,-0.56397 -0.145263,-0.82886 -0.136719,-0.26489 -0.60669,-0.26489 -0.666504,0 -1.435547,0.64087 l 0,8.656 -2.1875,0 z"
               style="fill:#7fdbff;"
               />
            <path
               d="m 84.736328,334.73983 q -1.290283,0 -1.879883,-0.65796 -0.581054,-0.65795 -0.598144,-1.99096 l 0,-6.80176 -1.09375,0 0,-1.64063 1.09375,0 0,-3.82812 2.1875,0 0,3.82812 1.640625,0 0,1.64063 -1.640625,0 0,6.38306 q 0,0.65796 0.179443,0.96557 0.179443,0.30762 0.726318,0.30762 0.239258,0 0.734864,-0.0854 l 0,1.77734 q -0.820313,0.10254 -1.350098,0.10254 z"
               style="fill:#7fdbff;"
               />
            <path
               d="m 90.717773,334.73983 q -1.290283,0 -1.879882,-0.65796 -0.581055,-0.65795 -0.598145,-1.99096 l 0,-6.80176 -1.09375,0 0,-1.64063 1.09375,0 0,-3.82812 2.1875,0 0,3.82812 1.640625,0 0,1.64063 -1.640625,0 0,6.38306 q 0,0.65796 0.179443,0.96557 0.179444,0.30762 0.726319,0.30762 0.239258,0 0.734863,-0.0854 l 0,1.77734 q -0.820312,0.10254 -1.350098,0.10254 z"
               style="fill:#7fdbff;"
               />
            <path
               d="m 97.493896,332.9454 q 0.350342,0 0.581055,-0.25635 0.239258,-0.25635 0.341797,-0.72632 0.111084,-0.47851 0.145264,-0.93994 0.04272,-0.46997 0.04272,-1.09375 l -0.01709,-1.44409 q 0,-0.38452 -0.0085,-0.61523 0,-0.23926 -0.02564,-0.62378 -0.02563,-0.39307 -0.0769,-0.64087 -0.04272,-0.24781 -0.136718,-0.54688 -0.09399,-0.29907 -0.230713,-0.46997 -0.128174,-0.1709 -0.341797,-0.29053 -0.205078,-0.11962 -0.469971,-0.11962 -0.128174,0 -0.247802,0.0171 -0.111084,0.0171 -0.239258,0.0598 -0.119629,0.0342 -0.205078,0.0684 -0.07691,0.0256 -0.205079,0.094 -0.128173,0.0684 -0.187988,0.10254 -0.05127,0.0256 -0.187988,0.11109 -0.136719,0.0855 -0.170899,0.10254 l 0,6.76757 q 0.751954,0.44434 1.640625,0.44434 z m -3.828125,4.92187 0,-14.21875 2.1875,0 0,1.09375 q 0.264893,-0.28198 0.367432,-0.38452 0.102539,-0.10254 0.350342,-0.31616 0.256348,-0.21362 0.435791,-0.29907 0.187988,-0.0855 0.469971,-0.16235 0.290527,-0.0855 0.598144,-0.0855 0.55542,0 0.991211,0.20507 0.435791,0.19654 0.717774,0.47852 0.281984,0.28198 0.478514,0.81177 0.19653,0.52124 0.29053,0.94848 0.10254,0.42725 0.15381,1.15357 0.0513,0.72632 0.0598,1.1792 0.009,0.44433 0.009,1.23047 l 0,0.16235 q 0,0.71777 -0.0769,1.38428 -0.0684,0.6665 -0.26489,1.35864 -0.18799,0.68359 -0.487061,1.18774 -0.290527,0.50415 -0.786133,0.82886 -0.48706,0.31616 -1.119385,0.31616 -1.110839,0 -2.1875,-1.13647 l 0,4.26391 -2.1875,0 z"
               style="fill:#7fdbff;"
               />
          </g>
        </g>
      </g>
    </g>
  </g>
</svg>
